<?xml version="1.0" encoding="UTF-8" standalone="no"?>
<svg
   xmlns:dc="http://purl.org/dc/elements/1.1/"
   xmlns:cc="http://creativecommons.org/ns#"
   xmlns:rdf="http://www.w3.org/1999/02/22-rdf-syntax-ns#"
   xmlns:svg="http://www.w3.org/2000/svg"
   xmlns="http://www.w3.org/2000/svg"
   xmlns:sodipodi="http://sodipodi.sourceforge.net/DTD/sodipodi-0.dtd"
   xmlns:inkscape="http://www.inkscape.org/namespaces/inkscape"
   style="overflow: hidden; position: relative;"
   height="99"
   version="1.1"
   width="268"
   id="svg6467"
   inkscape:version="0.48.4 r9939"
   sodipodi:docname="implement-process.svg">
  <metadata
     id="metadata6488">
    <rdf:RDF>
      <cc:Work
         rdf:about="">
        <dc:format>image/svg+xml</dc:format>
        <dc:type
           rdf:resource="http://purl.org/dc/dcmitype/StillImage" />
      </cc:Work>
    </rdf:RDF>
  </metadata>
  <sodipodi:namedview
     pagecolor="#ffffff"
     bordercolor="#666666"
     borderopacity="1"
     objecttolerance="10"
     gridtolerance="10"
     guidetolerance="10"
     inkscape:pageopacity="0"
     inkscape:pageshadow="2"
     inkscape:window-width="1680"
     inkscape:window-height="998"
     id="namedview6486"
     showgrid="false"
     showguides="true"
     inkscape:guide-bbox="true"
     inkscape:zoom="2.63"
     inkscape:cx="13.285141"
     inkscape:cy="76.345638"
     inkscape:window-x="-8"
     inkscape:window-y="-8"
     inkscape:window-maximized="1"
     inkscape:current-layer="svg6467" />
  <desc
     style="-webkit-tap-highlight-color: rgba(0, 0, 0, 0);"
     id="desc6469">Created with Raphaël 2.1.0</desc>
  <defs
     style="-webkit-tap-highlight-color: rgba(0, 0, 0, 0);"
     id="defs6471">
    <path
       style="-webkit-tap-highlight-color: rgba(0, 0, 0, 0);"
       stroke-linecap="round"
       d="M5,0 0,2.5 5,5z"
       id="raphael-marker-block" />
    <marker
       style="-webkit-tap-highlight-color: rgba(0, 0, 0, 0);"
       id="raphael-marker-endblock33"
       markerHeight="3"
       markerWidth="3"
       orient="auto"
       refX="1.5"
       refY="1.5">
      <use
         style="-webkit-tap-highlight-color: rgba(0, 0, 0, 0);"
         href="#raphael-marker-block"
         transform="rotate(180 1.5 1.5) scale(0.6,0.6)"
         stroke-width="1.6667"
         fill="grey"
         stroke="none"
         id="use6475" />
    </marker>
    <marker
       id="raphael-marker-endblock33-2"
       markerHeight="3"
       markerWidth="3"
       orient="auto"
       refX="1.5"
       refY="1.5">
      <use
         height="3"
         width="3"
         y="0"
         x="0"
         style="fill:#808080;stroke:none"
         href="#raphael-marker-block"
         transform="matrix(-0.6,0,0,-0.6,3,3)"
         id="use6475-8" />
    </marker>
  </defs>
  <circle
     style="fill:#ffffff;stroke:#808080;stroke-width:2.81570228;stroke-linecap:round;stroke-linejoin:round;stroke-opacity:1;stroke-miterlimit:4;stroke-dasharray:none"
     cx="30"
     cy="42"
     r="15"
     id="svg_sid-885E046C-1BCE-4130-A350-35687C865B54"
     sodipodi:cx="30"
     sodipodi:cy="42"
     sodipodi:rx="15"
     sodipodi:ry="15"
     transform="matrix(0.71030237,0,0,0.71030237,27.217396,5.5879141)" />
  <rect
     style="fill:#ffffff;stroke:#808080;stroke-width:1.57735515;stroke-linecap:round;stroke-linejoin:round;stroke-opacity:1"
     x="89.788681"
     y="14.788677"
     width="56.784786"
     height="42.588589"
     r="5"
     rx="3.9433877"
     ry="3.9433877"
     id="svg_sid-57C6ED2E-38C3-46F1-A86F-F744905A39C0" />
  <path
     style="fill:#808080;stroke:#808080;stroke-width:1;stroke-linecap:round;stroke-linejoin:round;stroke-opacity:1"
     d="m 106.69848,25.658162 c 0.28005,0 0.5406,-0.2271 0.5787,-0.5046 0,0 0.0536,-0.39 0.0536,-0.8538 0,-0.4638 -0.0536,-0.8538 -0.0536,-0.8538 -0.0383,-0.27765 -0.29865,-0.5046 -0.5787,-0.5046 h -1.4472 c -0.2802,0 -0.5712,-0.17865 -0.6465,-0.3969 -0.0753,-0.21825 -0.17895,-0.91845 0.0192,-1.11645 l 1.023,-1.023 c 0.198,-0.19815 0.2133,-0.53625 0.0339,-0.7515 l -1.2036,-1.2039 c -0.21525,-0.17955 -0.5532,-0.16425 -0.7515,0.0339 l -1.023,1.023 c -0.198,0.19815 -0.52815,0.27795 -0.7332,0.17745 -0.2052,-0.1005 -0.78015,-0.5244 -0.78015,-0.8046 v -1.4472 c 0,-0.2802 -0.2271,-0.5406 -0.5046,-0.57885 0,0 -0.39,-0.0537 -0.8538,-0.0537 -0.4638,0 -0.8538,0.0537 -0.8538,0.0537 -0.27765,0.0381 -0.50475,0.29865 -0.50475,0.57885 v 1.4472 c 0,0.2802 -0.1785,0.57105 -0.3969,0.6465 -0.2184,0.0753 -0.91845,0.17895 -1.1166,-0.0192 l -1.023004,-1.023 c -0.19815,-0.19815 -0.53625,-0.21345 -0.75135,-0.03405 l -1.20375,1.20375 c -0.17955,0.21525 -0.16425,0.55335 0.0339,0.7515 l 1.02285,1.023 c 0.19815,0.19815 0.2781,0.52815 0.17745,0.7332 -0.10065,0.20505 -0.5244,0.78015 -0.8046,0.78015 h -1.44705 c -0.2802,0 -0.5406,0.2271 -0.57885,0.5046 0,0 -0.0537,0.39 -0.0537,0.8538 0,0.46395 0.0537,0.8538 0.0537,0.8538 0.0381,0.27765 0.29865,0.5046 0.57885,0.5046 h 1.4472 c 0.2802,0 0.57105,0.1785 0.64635,0.3969 0.0753,0.21825 0.17895,0.9183 -0.0192,1.11645 l -1.02285,1.02285 c -0.19815,0.19815 -0.21345,0.53625 -0.0339,0.7515 l 1.2036,1.2039 c 0.21525,0.1794 0.5532,0.16425 0.75135,-0.0339 l 1.023004,-1.023 c 0.19815,-0.198 0.52815,-0.27795 0.73335,-0.17745 0.2052,0.1005 0.78015,0.5244 0.78015,0.8046 v 1.4472 c 0,0.28005 0.2271,0.5406 0.50475,0.5787 0,0 0.38985,0.05355 0.8538,0.05355 0.46395,0 0.8538,-0.05355 0.8538,-0.05355 0.27765,-0.03825 0.5046,-0.29865 0.5046,-0.5787 v -1.4472 c 0,-0.2802 0.1785,-0.5712 0.3969,-0.6465 0.2184,-0.0753 0.91845,-0.1788 1.1166,0.0192 l 1.02285,1.023 c 0.19815,0.198 0.53625,0.2133 0.7515,0.0339 l 1.2036,-1.20345 c 0.1794,-0.21525 0.16425,-0.5532 -0.0341,-0.7515 l -1.02285,-1.02285 c -0.19815,-0.19815 -0.2781,-0.52815 -0.17745,-0.73335 0.1005,-0.2052 0.5244,-0.78015 0.8046,-0.78015 h 1.44735 z m -6.8676,1.38675 c -1.5162,0 -2.7453,-1.22895 -2.7453,-2.7453 0,-1.51605 1.2291,-2.7453 2.7453,-2.7453 1.5162,0 2.7453,1.2291 2.7453,2.7453 0,1.5162 -1.2291,2.7453 -2.7453,2.7453 z"
     id="path6479"
     inkscape:connector-curvature="0" />
  <path
     style="fill:none;stroke:#808080;stroke-width:1.63900518;stroke-linecap:square;stroke-linejoin:round;stroke-opacity:1;marker-end:url(#raphael-marker-endblock33)"
     d="m 59.943299,36.18107 c 0,0 21.440329,0 28.203246,0"
     id="path6482"
     inkscape:connector-curvature="0" />
  <path
     style="fill:none;stroke:#808080;stroke-width:1.70285177;stroke-linecap:square;stroke-linejoin:round;stroke-opacity:1;marker-end:url(#raphael-marker-endblock33)"
     d="m 148.14468,35.82716 c 0,0 25.00199,0 32.61978,0"
     id="path6484"
     inkscape:connector-curvature="0" />
  <circle
     style="fill:#ffffff;stroke:#808080;stroke-width:4.22355341;stroke-linecap:round;stroke-linejoin:round;stroke-opacity:1;overflow:hidden;stroke-miterlimit:4;stroke-dasharray:none"
     cx="30"
     cy="42"
     r="15"
     id="svg_sid-885E046C-1BCE-4130-A350-35687C865B54-0"
     sodipodi:cx="30"
     sodipodi:cy="42"
     sodipodi:rx="15"
     sodipodi:ry="15"
     transform="matrix(0.71030237,0,0,0.71030237,170.70614,5.2889735)" />
</svg>
