<?xml version="1.0" encoding="UTF-8" standalone="no"?>
<!-- Created with Inkscape (http://www.inkscape.org/) -->

<svg
   xmlns:dc="http://purl.org/dc/elements/1.1/"
   xmlns:cc="http://creativecommons.org/ns#"
   xmlns:rdf="http://www.w3.org/1999/02/22-rdf-syntax-ns#"
   xmlns:svg="http://www.w3.org/2000/svg"
   xmlns="http://www.w3.org/2000/svg"
   version="1.1"
   width="542.58563"
   height="264.62125"
   id="svg2">
  <defs
     id="defs4" />
  <metadata
     id="metadata7">
    <rdf:RDF>
      <cc:Work
         rdf:about="">
        <dc:format>image/svg+xml</dc:format>
        <dc:type
           rdf:resource="http://purl.org/dc/dcmitype/StillImage" />
        <dc:title></dc:title>
      </cc:Work>
    </rdf:RDF>
  </metadata>
  <g
     transform="translate(-632.6797,-20.085033)"
     id="layer1">
    <g
       id="g4611"
       style="opacity:0.89380535;fill:#399e24;fill-opacity:1;stroke:none">
      <path
         d="m 740.18342,107.63002 75.52444,51.94923 80.48673,-44.45007 -77.27196,-49.322535 z"
         id="path4621"
         style="fill:#bda12b;fill-opacity:1;stroke:none" />
      <path
         d="m 740.18342,62.100378 0,45.529642 78.73921,-41.823375 0,-44.721897 z"
         id="path4613"
         style="fill:#bda12b;fill-rule:evenodd;stroke:none" />
      <path
         d="m 818.92263,21.084748 77.27196,47.538608 0,46.505824 -77.27196,-49.322535 z"
         id="path4623"
         style="fill:#bda12b;fill-rule:evenodd;stroke:none" />
      <path
         d="M 740.18342,62.100378 815.70786,112.19933 896.19459,68.623356 818.92263,21.084748 z"
         id="path4615"
         style="fill:#bda12b;fill-opacity:1;fill-rule:evenodd;stroke:none" />
      <path
         d="m 815.70786,112.19933 0,47.37992 80.48673,-44.45007 0,-46.505824 z"
         id="path4619"
         style="fill:#9d8523;fill-opacity:1;stroke:none" />
      <path
         d="m 740.18342,62.100378 75.52444,50.098952 0,47.37992 -75.52444,-51.94923 z"
         id="path4617"
         style="fill:#7c691c;fill-opacity:1;stroke:none" />
    </g>
    <g
       id="g4639"
       style="opacity:0.89380535;fill:#399e24;fill-opacity:1;stroke:none">
      <path
         d="m 633.20949,171.24353 72.79327,55.77267 85.85975,-47.54892 -74.81344,-52.88155 z"
         id="path4643"
         style="fill:#bda12b;fill-rule:evenodd;stroke:none" />
      <path
         d="m 633.20949,171.24353 0,-56.19506 83.83958,-43.621247 0,55.158507 z"
         id="path4641"
         style="fill:#bda12b;fill-rule:evenodd;stroke:none" />
      <path
         d="m 717.04907,126.58573 74.81344,52.88155 0,-57.40698 -74.81344,-50.633077 z"
         id="path4651"
         style="fill:#bda12b;fill-rule:evenodd;stroke:none" />
      <path
         d="m 633.20949,115.04847 72.79327,53.43711 85.85975,-46.42528 -74.81344,-50.633077 z"
         id="path4649"
         style="fill:#bda12b;fill-opacity:1;stroke:none" />
      <path
         d="m 706.00276,227.0162 0,-58.53062 85.85975,-46.42528 0,57.40698 z"
         id="path4647"
         style="fill:#9d8523;fill-opacity:1;stroke:none" />
      <path
         d="m 633.20949,171.24353 72.79327,55.77267 0,-58.53062 -72.79327,-53.43711 z"
         id="path4645"
         style="fill:#7c691c;fill-opacity:1;stroke:none" />
    </g>
    <g
       id="g4513"
       style="opacity:0.89380535;fill:#399e24;fill-opacity:1;stroke:none">
      <path
         d="m 932.13165,120.29335 73.33135,46.17156 78.9998,-45.74313 -74.6682,-43.776486 z"
         id="path4517"
         style="fill:#399e24;fill-rule:evenodd;stroke:none" />
      <path
         d="m 932.13165,120.29335 0,-48.963178 77.66295,-42.45254 0,48.067662 z"
         id="path4515"
         style="fill:#399e24;fill-rule:evenodd;stroke:none" />
      <path
         d="m 1009.7946,76.945294 74.6682,43.776486 0,-49.75425 -74.6682,-42.089898 z"
         id="path4525"
         style="fill:#399e24;fill-rule:evenodd;stroke:none" />
      <path
         d="m 932.13165,71.330172 73.33135,44.420398 78.9998,-44.78304 -74.6682,-42.089898 z"
         id="path4523"
         style="fill:#399e24;fill-opacity:1;stroke:none" />
      <path
         d="m 1005.463,166.46491 0,-50.71434 78.9998,-44.78304 0,49.75425 z"
         id="path4521"
         style="fill:#2d7d1d;fill-opacity:1;stroke:none" />
      <path
         d="m 932.13165,120.29335 73.33135,46.17156 0,-50.71434 -73.33135,-44.420398 z"
         id="path4519"
         style="fill:#215a18;fill-opacity:1;stroke:none" />
    </g>
    <g
       id="g4497"
       style="fill:#399e24;fill-opacity:1;stroke:none">
      <path
         d="m 902.32245,219.8783 -71.6749,-49.32693 80.2373,-44.66706 73.19893,46.77245 z"
         id="path4501"
         style="fill:#b72a37;fill-rule:evenodd;stroke:none" />
      <path
         d="m 830.64755,170.55137 0,-45.81909 80.2373,-43.821491 0,44.973521 z"
         id="path4505"
         style="fill:#b72a37;fill-opacity:1;stroke:none" />
      <path
         d="m 984.08378,172.65676 -73.19893,-46.77245 0,-44.973521 73.19893,45.150071 z"
         id="path4509"
         style="fill:#b72a37;fill-rule:evenodd;stroke:none" />
      <path
         d="m 902.32245,172.3741 -71.6749,-47.64182 80.2373,-43.821491 73.19893,45.150071 z"
         id="path4507"
         style="fill:#b72a37;fill-opacity:1;stroke:none" />
      <path
         d="m 902.32245,219.8783 0,-47.5042 81.76133,-46.31324 0,46.5959 z"
         id="path4499"
         style="fill:#9c242f;fill-opacity:1;fill-rule:evenodd;stroke:none" />
      <path
         d="m 902.32245,219.8783 -71.6749,-49.32693 0,-45.81909 71.6749,47.64182 z"
         id="path4503"
         style="fill:#7c1c25;fill-opacity:1;stroke:none" />
    </g>
    <g
       id="g4597"
       style="opacity:0.89380535;fill:#399e24;fill-opacity:1;stroke:none">
      <path
         d="m 1017.6071,167.92 80.8563,50.6751 77.3317,-46.786 -82.1478,-48.07363 z"
         id="path4607"
         style="fill:#3a2a83;fill-opacity:1;stroke:none" />
      <path
         d="m 1017.6071,123.42993 0,44.49007 76.0402,-44.18453 0,-43.677 z"
         id="path4599"
         style="fill:#3a2a83;fill-rule:evenodd;stroke:none" />
      <path
         d="m 1093.6473,80.05847 82.1478,46.4515 0,45.29913 -82.1478,-48.07363 z"
         id="path4609"
         style="fill:#3a2a83;fill-rule:evenodd;stroke:none" />
      <path
         d="m 1017.6071,123.42993 80.8563,48.99086 77.3317,-45.91082 -82.1478,-46.4515 z"
         id="path4601"
         style="fill:#3a2a83;fill-rule:evenodd;stroke:none" />
      <path
         d="m 1098.4634,172.42079 0,46.17431 77.3317,-46.786 0,-45.29913 z"
         id="path4605"
         style="fill:#2d2165;fill-opacity:1;stroke:none" />
      <path
         d="m 1017.6071,123.42993 80.8563,48.99086 0,46.17431 -80.8563,-50.6751 z"
         id="path4603"
         style="fill:#1f1747;fill-opacity:1;stroke:none" />
    </g>
    <g
       id="g4527"
       style="opacity:0.89380535;fill:#399e24;fill-opacity:1;stroke:none">
      <path
         d="m 919.51218,232.46584 76.31449,52.48404 80.46563,-48.59937 -77.75826,-49.78527 z"
         id="path4531"
         style="fill:#bdbdbd;fill-rule:evenodd;stroke:none" />
      <path
         d="m 919.51218,232.46584 0,-45.85658 79.02186,-45.05082 0,45.0068 z"
         id="path4529"
         style="fill:#bdbdbd;fill-rule:evenodd;stroke:none" />
      <path
         d="m 998.53404,186.56524 77.75826,49.78527 0,-46.66424 -77.75826,-48.12783 z"
         id="path4539"
         style="fill:#bdbdbd;fill-rule:evenodd;stroke:none" />
      <path
         d="m 919.51218,186.60926 76.31449,50.76222 80.46563,-47.68521 -77.75826,-48.12783 z"
         id="path4537"
         style="fill:#bdbdbd;fill-opacity:1;stroke:none" />
      <path
         d="m 995.82667,284.94988 0,-47.5784 80.46563,-47.68521 0,46.66424 z"
         id="path4535"
         style="fill:#a9a9a9;fill-opacity:1;stroke:none" />
      <path
         d="m 919.51218,232.46584 76.31449,52.48404 0,-47.5784 -76.31449,-50.76222 z"
         id="path4533"
         style="fill:#959595;fill-opacity:1;stroke:none" />
    </g>
    <g
       id="g4930"
       style="opacity:0.89380535;fill:#399e24;fill-opacity:1;stroke:none">
      <path
         d="m 715.90382,231.67796 71.79962,54.89689 93.46577,-53.99208 -73.77642,-51.77916 z"
         id="path4940"
         style="fill:#bda12b;fill-opacity:1;stroke:none" />
      <path
         d="m 715.90382,185.02145 0,46.65651 91.48897,-50.87435 0,-45.69998 z"
         id="path4932"
         style="fill:#bda12b;fill-rule:evenodd;stroke:none" />
      <path
         d="m 807.39279,135.10363 73.77642,50.02826 0,47.45088 -73.77642,-51.77916 z"
         id="path4942"
         style="fill:#bda12b;fill-rule:evenodd;stroke:none" />
      <path
         d="m 715.90382,185.02145 71.79962,53.07047 93.46577,-52.96003 -73.77642,-50.02826 z"
         id="path4934"
         style="fill:#bda12b;fill-rule:evenodd;stroke:none" />
      <path
         d="m 787.70344,238.09192 0,48.48293 93.46577,-53.99208 0,-47.45088 z"
         id="path4938"
         style="fill:#9d8523;fill-opacity:1;stroke:none" />
      <path
         d="m 715.90382,185.02145 71.79962,53.07047 0,48.48293 -71.79962,-54.89689 z"
         id="path4936"
         style="fill:#7c691c;fill-opacity:1;stroke:none" />
    </g>
    <text
       x="573.9234"
       y="-483.27869"
       transform="matrix(0.92257827,0.53735632,-1.0033893,0.49949412,0,0)"
       id="text6482"
       xml:space="preserve"
       style="font-size:26.12769699px;font-style:normal;font-weight:normal;line-height:125%;letter-spacing:0px;word-spacing:0px;fill:#b2eba7;fill-opacity:1;stroke:none;font-family:Sans"><tspan
         x="573.9234"
         y="-483.27869"
         id="tspan6484"
         style="font-size:18px;text-align:center;text-anchor:middle;fill:#b2eba7;fill-opacity:1">REST</tspan><tspan
         x="573.9234"
         y="-460.77869"
         id="tspan6486"
         style="font-size:18px;text-align:center;text-anchor:middle;fill:#b2eba7;fill-opacity:1">API</tspan></text>
    <text
       x="668.13788"
       y="-475.80078"
       transform="matrix(0.97223643,0.53735632,-0.95723006,0.49949412,0,0)"
       id="text6482-3"
       xml:space="preserve"
       style="font-size:26.12769699px;font-style:normal;font-weight:normal;line-height:125%;letter-spacing:0px;word-spacing:0px;fill:#ada2e2;fill-opacity:1;stroke:none;font-family:Sans"><tspan
         x="668.13788"
         y="-475.80078"
         id="tspan6486-5"
         style="font-size:18px;text-align:center;text-anchor:middle;fill:#ada2e2;fill-opacity:1">Process</tspan><tspan
         x="668.13788"
         y="-453.30078"
         id="tspan6514"
         style="font-size:18px;text-align:center;text-anchor:middle;fill:#ada2e2;fill-opacity:1">Engine</tspan></text>
    <text
       x="695.92877"
       y="-379.66019"
       transform="matrix(0.86591545,0.53848587,-1.0558212,0.49826481,0,0)"
       id="text6482-3-0"
       xml:space="preserve"
       style="font-size:26.12769699px;font-style:normal;font-weight:normal;line-height:125%;letter-spacing:0px;word-spacing:0px;fill:#f1f1f1;fill-opacity:1;stroke:none;font-family:Sans"><tspan
         x="695.92877"
         y="-379.66019"
         id="tspan6514-4"
         style="font-size:18px;text-align:center;text-anchor:middle;fill:#f1f1f1;fill-opacity:1">CDI</tspan><tspan
         x="695.92877"
         y="-357.16019"
         id="tspan6542"
         style="font-size:18px;text-align:center;text-anchor:middle;fill:#f1f1f1;fill-opacity:1">SPRING</tspan></text>
    <text
       x="478.35333"
       y="-369.36356"
       transform="matrix(0.83474091,0.52202634,-1.1156791,0.50025837,0,0)"
       id="text6482-3-0-5"
       xml:space="preserve"
       style="font-size:26.12769699px;font-style:normal;font-weight:normal;line-height:125%;letter-spacing:0px;word-spacing:0px;fill:#ece4c1;fill-opacity:1;stroke:none;font-family:Sans"><tspan
         x="478.35333"
         y="-369.36356"
         id="tspan6542-2"
         style="font-size:20px;text-align:center;text-anchor:middle;fill:#ece4c1;fill-opacity:1">Tasklist</tspan></text>
    <text
       x="496.22327"
       y="-322.96945"
       transform="matrix(0.9466557,0.63286713,-0.99762191,0.38941072,0,0)"
       id="text6482-3-0-5-0"
       xml:space="preserve"
       style="font-size:26.12769699px;font-style:normal;font-weight:normal;line-height:125%;letter-spacing:0px;word-spacing:0px;fill:#ece4c1;fill-opacity:1;stroke:none;font-family:Sans"><tspan
         x="496.22327"
         y="-322.96945"
         id="tspan6542-2-3"
         style="font-size:20px;text-align:center;text-anchor:middle;fill:#ece4c1;fill-opacity:1">Cockpit</tspan></text>
    <text
       x="401.87018"
       y="-340.0462"
       transform="matrix(0.86359317,0.62778126,-1.0487038,0.3956069,0,0)"
       id="text6482-3-0-5-0-5"
       xml:space="preserve"
       style="font-size:26.12769699px;font-style:normal;font-weight:normal;line-height:125%;letter-spacing:0px;word-spacing:0px;fill:#ece4c1;fill-opacity:1;stroke:none;font-family:Sans"><tspan
         x="401.87018"
         y="-340.0462"
         id="tspan6542-2-3-6"
         style="font-size:22px;text-align:center;text-anchor:middle;fill:#ece4c1;fill-opacity:1">Cycle</tspan></text>
    <text
       x="909.87988"
       y="-56.09515"
       id="text6638"
       xml:space="preserve"
       style="font-size:21.10042381px;font-style:normal;font-weight:normal;line-height:125%;letter-spacing:0px;word-spacing:0px;fill:#000000;fill-opacity:1;stroke:none;font-family:Sans"><tspan
         x="909.87988"
         y="-56.09515"
         id="tspan6640"
         style="font-weight:bold;text-align:center;text-anchor:middle;fill:#ffffff;fill-opacity:1;-inkscape-font-specification:Sans Bold">Your</tspan><tspan
         x="909.87988"
         y="-29.71962"
         id="tspan6642"
         style="font-weight:bold;text-align:center;text-anchor:middle;fill:#ffffff;fill-opacity:1;-inkscape-font-specification:Sans Bold">App</tspan></text>
  </g>
</svg>
